<!DOCTYPE svg PUBLIC "-//W3C//DTD SVG 1.1//EN" "http://www.w3.org/Graphics/SVG/1.1/DTD/svg11.dtd">
<!-- Uploaded to: SVG Repo, www.svgrepo.com, Transformed by: SVG Repo Mixer Tools -->
<svg fill="#c91d1d" height="64px" width="64px" version="1.1" id="Layer_1" xmlns="http://www.w3.org/2000/svg" xmlns:xlink="http://www.w3.org/1999/xlink" viewBox="0 0 459 459" xml:space="preserve" stroke="#c91d1d">
<g id="SVGRepo_bgCarrier" stroke-width="0"/>
<g id="SVGRepo_tracerCarrier" stroke-linecap="round" stroke-linejoin="round"/>
<g id="SVGRepo_iconCarrier"> <g> <g> <path d="M229.5,0C102.751,0,0,102.751,0,229.5S102.751,459,229.5,459S459,356.249,459,229.5S356.249,0,229.5,0z M307.105,271.629 c9.797,9.797,9.797,25.68,0,35.477c-4.898,4.898-11.318,7.347-17.738,7.347c-6.42,0-12.84-2.449-17.738-7.347L229.5,264.977 l-42.128,42.129c-4.898,4.898-11.318,7.347-17.738,7.347c-6.42,0-12.84-2.449-17.738-7.347c-9.797-9.796-9.797-25.68,0-35.477 l42.129-42.129l-42.129-42.129c-9.797-9.797-9.797-25.68,0-35.477s25.68-9.797,35.477,0l42.128,42.129l42.128-42.129 c9.797-9.797,25.68-9.797,35.477,0c9.797,9.796,9.797,25.68,0,35.477l-42.13,42.129L307.105,271.629z"/> </g> </g> </g>
</svg>