<svg width="32" height="33" viewBox="0 0 32 33" fill="none" xmlns="http://www.w3.org/2000/svg">
<g id="left arrow">
<path id="Vector" d="M20.1664 28.6334L8.93307 17.4334C8.79974 17.3 8.70552 17.1556 8.65041 17C8.59441 16.8445 8.56641 16.6778 8.56641 16.5C8.56641 16.3223 8.59441 16.1556 8.65041 16C8.70552 15.8445 8.79974 15.7 8.93307 15.5667L20.1664 4.33337C20.4775 4.02225 20.8664 3.8667 21.3331 3.8667C21.7997 3.8667 22.1997 4.03337 22.5331 4.3667C22.8664 4.70003 23.0331 5.08892 23.0331 5.53337C23.0331 5.97781 22.8664 6.3667 22.5331 6.70003L12.7331 16.5L22.5331 26.3C22.8442 26.6111 22.9997 26.9943 22.9997 27.4494C22.9997 27.9054 22.8331 28.3 22.4997 28.6334C22.1664 28.9667 21.7775 29.1334 21.3331 29.1334C20.8886 29.1334 20.4997 28.9667 20.1664 28.6334Z" fill="#121212"/>
</g>
</svg>
