<svg width="25" height="25" viewBox="0 0 25 25" fill="none" xmlns="http://www.w3.org/2000/svg">
<g id="pin_drop">
<path id="Vector" d="M12.5 16.975C14.15 15.6417 15.396 14.3583 16.238 13.125C17.0793 11.8917 17.5 10.7333 17.5 9.65C17.5 8.71667 17.3293 7.92067 16.988 7.262C16.646 6.604 16.225 6.07067 15.725 5.662C15.225 5.254 14.6833 4.95833 14.1 4.775C13.5167 4.59167 12.9833 4.5 12.5 4.5C12.0167 4.5 11.4833 4.59167 10.9 4.775C10.3167 4.95833 9.775 5.254 9.275 5.662C8.775 6.07067 8.35433 6.604 8.013 7.262C7.671 7.92067 7.5 8.71667 7.5 9.65C7.5 10.7333 7.92067 11.8917 8.762 13.125C9.604 14.3583 10.85 15.6417 12.5 16.975ZM12.5 19.5C10.15 17.7667 8.39567 16.0833 7.237 14.45C6.079 12.8167 5.5 11.2167 5.5 9.65C5.5 8.46667 5.71267 7.429 6.138 6.537C6.56267 5.64567 7.10833 4.9 7.775 4.3C8.44167 3.7 9.19167 3.25 10.025 2.95C10.8583 2.65 11.6833 2.5 12.5 2.5C13.3167 2.5 14.1417 2.65 14.975 2.95C15.8083 3.25 16.5583 3.7 17.225 4.3C17.8917 4.9 18.4377 5.64567 18.863 6.537C19.2877 7.429 19.5 8.46667 19.5 9.65C19.5 11.2167 18.9207 12.8167 17.762 14.45C16.604 16.0833 14.85 17.7667 12.5 19.5ZM12.5 11.5C13.05 11.5 13.521 11.304 13.913 10.912C14.3043 10.5207 14.5 10.05 14.5 9.5C14.5 8.95 14.3043 8.479 13.913 8.087C13.521 7.69567 13.05 7.5 12.5 7.5C11.95 7.5 11.4793 7.69567 11.088 8.087C10.696 8.479 10.5 8.95 10.5 9.5C10.5 10.05 10.696 10.5207 11.088 10.912C11.4793 11.304 11.95 11.5 12.5 11.5ZM5.5 22.5V20.5H19.5V22.5H5.5Z" fill="black"/>
</g>
</svg>
