<svg width="32" height="33" viewBox="0 0 32 33" fill="none" xmlns="http://www.w3.org/2000/svg">
<g id="right arrow">
<path id="Vector" d="M11.4312 4.36663L22.6646 15.5666C22.7979 15.7 22.8921 15.8444 22.9473 16C23.0033 16.1555 23.0312 16.3222 23.0312 16.5C23.0312 16.6777 23.0033 16.8444 22.9473 17C22.8921 17.1555 22.7979 17.3 22.6646 17.4333L11.4312 28.6666C11.1201 28.9777 10.7312 29.1333 10.2646 29.1333C9.79792 29.1333 9.39792 28.9666 9.06458 28.6333C8.73125 28.3 8.56458 27.9111 8.56458 27.4666C8.56458 27.0222 8.73125 26.6333 9.06458 26.3L18.8646 16.5L9.06458 6.69997C8.75347 6.38885 8.59792 6.00574 8.59792 5.55063C8.59792 5.09463 8.76458 4.69997 9.09792 4.36663C9.43125 4.0333 9.82014 3.86663 10.2646 3.86663C10.709 3.86663 11.0979 4.0333 11.4312 4.36663Z" fill="#121212"/>
</g>
</svg>
