<svg width="24" height="24" viewBox="0 0 24 24" fill="none" xmlns="http://www.w3.org/2000/svg">
<g id="Brands/Telegram">
<path id="Icon" fill-rule="evenodd" clip-rule="evenodd" d="M5.7868 14.0196C5.83058 14.0344 5.87476 14.0448 5.9189 14.0512C5.96703 14.1644 6.02923 14.3107 6.10179 14.4818C6.27886 14.8994 6.51745 15.4643 6.76373 16.0535C7.26597 17.2552 7.77259 18.4939 7.88447 18.8485C8.02298 19.2868 8.16939 19.5848 8.32923 19.7883C8.41187 19.8935 8.50745 19.9853 8.6193 20.0549C8.6756 20.0899 8.73507 20.1186 8.79715 20.14C8.79988 20.141 8.80262 20.1419 8.80535 20.1428C9.12536 20.2636 9.41712 20.2133 9.59979 20.1518C9.69754 20.1188 9.77662 20.0791 9.83267 20.0469C9.86124 20.0304 9.88539 20.0151 9.90465 20.0021L9.90919 19.9991L12.7354 18.2366L15.9999 20.7394C16.0481 20.7763 16.1006 20.8073 16.1563 20.8316C16.5485 21.0027 16.9282 21.0624 17.2855 21.0136C17.6421 20.9649 17.9253 20.8151 18.1361 20.6464C18.3425 20.4813 18.4824 20.2963 18.5696 20.1589C18.6141 20.0887 18.6475 20.0266 18.671 19.9791C18.6829 19.9552 18.6924 19.9346 18.6998 19.9181L18.7092 19.8963L18.7127 19.8877L18.7142 19.8841L18.7149 19.8824L18.7155 19.8808C18.7327 19.8379 18.7458 19.7935 18.7548 19.7482L21.7351 4.72274C21.7446 4.67469 21.7494 4.62581 21.7494 4.57682C21.7494 4.13681 21.5836 3.71841 21.1938 3.46452C20.8606 3.24752 20.4894 3.23818 20.2548 3.25598C20.0018 3.27519 19.7681 3.33766 19.6112 3.38757C19.5296 3.41355 19.4612 3.43861 19.4119 3.45773C19.3871 3.46734 19.3668 3.47559 19.3516 3.48188L19.3402 3.48666L2.62652 10.0432L2.62436 10.044C2.6137 10.0479 2.60003 10.053 2.58378 10.0593C2.55141 10.0719 2.50805 10.0896 2.4574 10.1126C2.35861 10.1574 2.22003 10.2273 2.07783 10.3247C1.85064 10.4803 1.32815 10.9064 1.41613 11.6097C1.48632 12.1708 1.8707 12.5154 2.10489 12.6811C2.23348 12.7721 2.35565 12.8371 2.44462 12.8795C2.48589 12.8991 2.57159 12.9339 2.60877 12.9491L2.61815 12.9529L5.7868 14.0196ZM19.9252 4.86786L19.9228 4.86888C19.9145 4.8725 19.9061 4.87596 19.8977 4.87928L3.16367 11.4438C3.15493 11.4472 3.14613 11.4505 3.13727 11.4536L3.12795 11.4571C3.11725 11.4613 3.09923 11.4686 3.0766 11.4788C3.06378 11.4846 3.05039 11.491 3.03674 11.4978C3.05549 11.5084 3.07344 11.5175 3.08939 11.5251C3.1047 11.5324 3.11637 11.5374 3.12277 11.54L6.2654 12.598C6.32292 12.6174 6.37654 12.643 6.42576 12.674L16.8025 6.59948L16.8122 6.59374C16.8198 6.58927 16.8297 6.58353 16.8416 6.5768C16.8652 6.56345 16.8977 6.54568 16.9363 6.52603C17.0083 6.48938 17.1235 6.43497 17.2533 6.39485C17.3437 6.36692 17.6102 6.28823 17.8983 6.38064C18.0761 6.43767 18.2602 6.56028 18.3799 6.76798C18.4394 6.87117 18.4711 6.97483 18.4865 7.06972C18.5272 7.2192 18.5208 7.36681 18.4889 7.49424C18.4201 7.76875 18.2272 7.98287 18.0517 8.14665C17.9014 8.28706 15.956 10.1629 14.0369 12.0147C13.0798 12.9381 12.1325 13.8525 11.4245 14.5359L10.9594 14.9849L16.8314 19.4867C16.966 19.5349 17.0456 19.5325 17.0825 19.5274C17.1264 19.5214 17.1623 19.5045 17.199 19.4752C17.24 19.4424 17.2759 19.398 17.3027 19.3557L17.3038 19.354L20.1943 4.78102C20.1514 4.79133 20.108 4.80361 20.0662 4.81691C20.0189 4.83198 19.9798 4.84634 19.9539 4.85637C19.9411 4.86134 19.9319 4.86511 19.9269 4.86719L19.9252 4.86786ZM11.4639 17.2618L10.2924 16.3636L10.0085 18.1693L11.4639 17.2618ZM9.21773 14.5814L10.3827 13.4567C11.0908 12.7732 12.0382 11.8588 12.9953 10.9352L13.9678 9.997L7.44779 13.8138L7.48278 13.8963C7.66048 14.3154 7.90013 14.8827 8.14772 15.4751C8.33284 15.918 8.52643 16.3844 8.70276 16.8162L8.98579 15.0158C9.01308 14.8422 9.09788 14.692 9.21773 14.5814Z" fill="#121212"/>
</g>
</svg>
