<svg width="24" height="24" viewBox="0 0 24 24" fill="none" xmlns="http://www.w3.org/2000/svg">
<g id="Brands/Twitter">
<path id="Icon" fill-rule="evenodd" clip-rule="evenodd" d="M15.0215 3.3434C15.5299 3.25632 16.0992 3.22724 16.635 3.31789C17.5918 3.47977 18.4757 3.9245 19.1744 4.59126C19.6311 4.60158 20.0799 4.51161 20.477 4.38335C20.8131 4.2748 21.097 4.14373 21.296 4.04009C21.3949 3.98856 21.4713 3.9446 21.521 3.91484C21.5458 3.89998 21.5638 3.88874 21.5745 3.88195L21.5841 3.87589C21.8809 3.67816 22.2761 3.71664 22.529 3.96815C22.7819 4.21971 22.8226 4.61463 22.6264 4.91254C22.4187 5.22783 22.1303 5.7899 21.8073 6.41966C21.7565 6.51868 21.7048 6.61937 21.6525 6.72104C21.4672 7.08101 21.2772 7.44482 21.1001 7.75695C20.9889 7.95294 20.87 8.15191 20.7501 8.32385V8.59763C20.7577 9.60326 20.6424 10.6036 20.4083 11.5769C20.261 12.1892 20.0667 12.7908 19.8265 13.3762C19.2041 14.8928 18.2857 16.2703 17.1249 17.428C15.9642 18.5858 14.5844 19.5006 13.0662 20.1192C11.5492 20.7372 9.9245 21.047 8.28665 21.0305C5.91234 21.0326 3.58798 20.3485 1.59326 19.0606C1.29945 18.8709 1.17576 18.5033 1.29509 18.1746C1.41443 17.8459 1.74512 17.6433 2.09219 17.6862C2.39255 17.7234 2.69496 17.7415 2.99762 17.7405C4.08507 17.7375 5.15181 17.4972 6.12567 17.0446C5.81612 16.9037 5.52058 16.7299 5.24443 16.5251C4.43271 15.9232 3.8288 15.0833 3.51673 14.1221C3.43564 13.8724 3.49108 13.5984 3.66289 13.3998C3.66597 13.3963 3.66908 13.3927 3.67221 13.3892C3.48869 13.2256 3.31696 13.0474 3.15886 12.8558C2.44754 11.9936 2.05587 10.9121 2.05009 9.7944L2.05007 9.79053L2.05008 9.74053C2.05008 9.47466 2.19083 9.22867 2.42003 9.09395C2.47813 9.05979 2.53972 9.03409 2.60307 9.01685C2.26473 8.34177 2.08879 7.59632 2.09007 6.84006C2.08968 5.98329 2.31347 5.14133 2.73923 4.39782C2.86214 4.18319 3.08297 4.04295 3.3295 4.02298C3.57603 4.003 3.81656 4.10585 3.97242 4.2979C4.93498 5.48391 6.13626 6.45417 7.49825 7.14564C8.19839 7.50109 8.93294 7.77879 9.68874 7.97522C10.1125 8.08535 10.5429 8.16994 10.9777 8.22836C10.9585 7.50511 11.1013 6.78224 11.4011 6.11431C11.8407 5.13448 12.5932 4.3283 13.5404 3.82221C13.9416 3.60788 14.4741 3.43717 15.0215 3.3434ZM3.74335 10.8909C3.873 11.2558 4.06586 11.5981 4.31592 11.9012C4.80724 12.4967 5.48919 12.9043 6.24641 13.0549C6.58369 13.122 6.83213 13.4099 6.84916 13.7534C6.86618 14.0969 6.64743 14.4079 6.31843 14.508C6.04594 14.591 5.76676 14.6487 5.48441 14.6808C5.67099 14.9213 5.89047 15.1368 6.13787 15.3202C6.69906 15.7364 7.376 15.9672 8.07451 15.9807C8.39143 15.9868 8.6703 16.1914 8.77112 16.492C8.87195 16.7925 8.77296 17.1239 8.52386 17.3199C7.47469 18.1455 6.26149 18.7211 4.97594 19.015C6.04142 19.3562 7.15887 19.5319 8.28916 19.5305L8.29786 19.5305C9.73792 19.5455 11.1665 19.2734 12.5002 18.73C13.8339 18.1867 15.046 17.383 16.0656 16.366C17.0853 15.349 17.892 14.139 18.4388 12.8067C18.6498 12.2925 18.8205 11.764 18.9499 11.2261C19.1557 10.3703 19.257 9.49065 19.2501 8.60639L19.2501 8.60052V8.07053C19.2501 7.88867 19.3161 7.71301 19.436 7.57624C19.5053 7.4972 19.6264 7.31464 19.7955 7.01674C19.9561 6.73362 20.1339 6.39371 20.3188 6.03453C20.33 6.0128 20.3412 5.99097 20.3525 5.96903C19.8729 6.07318 19.3293 6.12777 18.7595 6.06618C18.579 6.04668 18.4118 5.96239 18.2887 5.82895C17.7858 5.28362 17.1162 4.92061 16.3848 4.79687C16.0602 4.74196 15.6679 4.75453 15.2748 4.82187C14.8477 4.89503 14.476 5.02304 14.2473 5.14522C13.593 5.49479 13.0733 6.05163 12.7696 6.72842C12.4659 7.4052 12.3954 8.16365 12.5692 8.88481C12.6246 9.11472 12.5683 9.3573 12.4174 9.53933C12.2664 9.72136 12.0384 9.82151 11.8022 9.80957C10.9588 9.76691 10.1243 9.63826 9.31142 9.42699C8.45152 9.2035 7.61579 8.88755 6.81921 8.48314C5.64643 7.88773 4.57838 7.11063 3.65354 6.18294C3.61135 6.39855 3.58993 6.61858 3.59008 6.84003L3.59007 6.84195C3.58903 7.39267 3.72418 7.9351 3.98349 8.42095C4.2428 8.9068 4.61822 9.32099 5.07633 9.62664C5.35436 9.81214 5.47608 10.1592 5.37483 10.4777C5.27358 10.7963 4.97378 11.0093 4.63968 11.0002C4.33708 10.992 4.03702 10.9552 3.74335 10.8909Z" fill="#121212"/>
</g>
</svg>
